<svg id="Layer_1" data-name="Layer 1" xmlns="http://www.w3.org/2000/svg" width="43.96" height="34.33" viewBox="0 0 43.96 34.33"><defs><style>.cls-1{fill:#62d92e;}</style></defs><path class="cls-1" d="M40.34,67.16a1.1,1.1,0,0,1-.78-.32L28.35,55.63a1.11,1.11,0,0,1-.33-.78,1.07,1.07,0,0,1,.33-.78L39.56,42.85a1.1,1.1,0,0,1,.78-.32,1.16,1.16,0,0,1,.42.08,1.09,1.09,0,0,1,.68,1v5.26H59.66A1.11,1.11,0,0,1,60.77,50v3.7l8.54-8.55L60.77,36.6v3.7a1.11,1.11,0,0,1-1.11,1.1H50a1.1,1.1,0,1,1,0-2.2h8.56V33.93a1.12,1.12,0,0,1,.68-1,1.2,1.2,0,0,1,.42-.08,1.12,1.12,0,0,1,.78.32L71.66,44.37a1.14,1.14,0,0,1,.32.78,1.09,1.09,0,0,1-.33.78L60.44,57.14a1.09,1.09,0,0,1-.78.33,1,1,0,0,1-.42-.09,1.09,1.09,0,0,1-.68-1V51.1H40.34a1.09,1.09,0,0,1-1.08-.89.62.62,0,0,1,0-.23V46.3l-8.55,8.55,8.55,8.54V59.71a1.11,1.11,0,0,1,1.1-1.12H50a1.11,1.11,0,1,1,0,2.21H41.44v5.26a1.09,1.09,0,0,1-.68,1A1,1,0,0,1,40.34,67.16Z" transform="translate(-28.02 -32.83)"/></svg>