<svg id="Layer_1" data-name="Layer 1" xmlns="http://www.w3.org/2000/svg" width="37.46" height="19.93" viewBox="0 0 37.46 19.93"><defs><style>.cls-1{fill:#62d92e;}</style></defs><path class="cls-1" d="M9.22,28a10,10,0,1,1,6.62-17.41c.24.22.48.45.7.69a5.56,5.56,0,0,1,.64.77,9.89,9.89,0,0,1,2,6,7.6,7.6,0,0,0,.91,3.47A6.43,6.43,0,0,0,21,22.82a7,7,0,0,0,1,1,7.58,7.58,0,1,0,.12-11.78A13,13,0,0,0,20.89,10,9.93,9.93,0,0,1,26.75,8h.5a10,10,0,1,1-7.09,17.41c-.25-.22-.48-.46-.71-.7a5,5,0,0,1-.63-.76,9.88,9.88,0,0,1-2-6,7.48,7.48,0,0,0-.91-3.48A7.42,7.42,0,0,0,15,13.18a7.63,7.63,0,0,0-1-1,7.57,7.57,0,1,0-.11,11.78A12.28,12.28,0,0,0,15.11,26,10,10,0,0,1,9.22,28Z" transform="translate(0.74 -8.04)"/></svg>