<svg id="Layer_1" data-name="Layer 1" xmlns="http://www.w3.org/2000/svg" width="33.2" height="32.76" viewBox="0 0 33.2 32.76"><defs><style>.cls-1{fill:#62d92e;}</style></defs><path class="cls-1" d="M255.35,239a16.6,16.6,0,0,0-11.74,4.8,16.21,16.21,0,0,0,0,23.17,16.74,16.74,0,0,0,23.47,0,16.21,16.21,0,0,0,0-23.17A16.58,16.58,0,0,0,255.35,239Zm0,30.58a14.2,14.2,0,1,1,14.41-14.2A14.33,14.33,0,0,1,255.35,269.55Z" transform="translate(-238.74 -238.97)"/><path class="cls-1" d="M262.5,260.1l-6.21-4.78v-9.44a1.09,1.09,0,1,0-2.18,0v10a1.09,1.09,0,0,0,.41.87l6.65,5.1a1,1,0,0,0,.66.23,1.12,1.12,0,0,0,.88-.43A1.09,1.09,0,0,0,262.5,260.1Z" transform="translate(-238.74 -238.97)"/></svg>